<svg xmlns="http://www.w3.org/2000/svg" viewBox="0 0 800 500" role="img" aria-label="Àßü™">
  <defs>
    <linearGradient id="bg" x1="1" y1="0" x2="0" y2="1">
      <stop offset="0%" stop-color="#c9a48a"/>
      <stop offset="50%" stop-color="#8a4d3a"/>
      <stop offset="100%" stop-color="#4a261c"/>
    </linearGradient>
  </defs>
  <rect width="800" height="500" fill="url(#bg)"/>
  <g fill="#1f120e" opacity="0.4" transform="translate(210,78) scale(14.5)">
    <path d="M21.6 8.6 20.2 7.2c-.4-.4-1-.6-1.5-.4l-1.8.5c-.6.1-1 .5-1.2 1.1L14.3 12.5H8.5C7.1 12.5 6 13.6 6 15V21h2v-2h8v2h2v-5.5c0-.3 0-.6-.1-.8l1.6-4.3 2.1-1.8ZM4 15V21H2v-6a3 3 0 0 1 3-3h1.2c-.1.3-.2.7-.2 1v2H4ZM12 2a2 2 0 1 1 0 4 2 2 0 0 1 0-4Z"/>
  </g>
  <text x="400" y="458" text-anchor="middle" fill="#f8e6dc" font-size="28" font-family="Yu Mincho, Hiragino Mincho ProN, serif" letter-spacing="0.18em">DUMMY PHOTO</text>
</svg>
